<svg width="346" height="469" viewBox="0 0 346 469" fill="none" xmlns="http://www.w3.org/2000/svg">
<path d="M241.118 0.01C256.008 2.82 269.058 9.04 278.528 21.09C305.138 54.96 284.738 104.72 242.498 110.88C207.028 116.06 190.478 115.29 160.658 139.03C81.188 202.32 105.458 318.65 198.608 351.02C224.958 360.17 252.378 352.29 273.648 372.97C302.978 401.5 292.028 452.28 253.398 465.77C248.968 467.32 244.508 467.56 240.128 469H229.128C212.468 465.82 197.898 458.74 188.318 444.31C176.398 426.36 180.708 411.39 176.838 391.8C167.498 344.52 124.648 301.65 77.348 292.3C61.328 289.13 46.288 291.76 31.158 284.49C13.908 276.2 3.67798 259.37 0.147976 241C0.477976 236.82 -0.312024 232.08 0.147976 228C2.56798 206.69 19.708 186.32 40.498 180.85C50.558 178.2 61.088 179.17 71.368 177.73C123.158 170.46 171.028 122.2 178.008 70.38C179.318 60.63 178.408 50.72 180.788 41.16C185.098 23.86 199.088 9.05 215.858 3.24L228.118 0H241.118V0.01Z" fill="white"/>
<path d="M228.118 333L264.928 287.33C282.528 257.49 253.948 239.08 238.718 217.91C230.768 206.86 227.788 198.59 235.678 186.08C239.538 179.96 262.938 151.62 268.088 147.49C281.008 137.14 294.888 146.26 306.018 154.6C339.088 179.37 352.738 223.11 341.368 262.78C327.668 310.54 277.378 342.72 228.118 333.01V333Z" fill="white"/>
<path d="M253.108 135.02L217.288 179.68C208.958 191.04 208.978 206.66 215.928 218.7C228.238 240.02 262.838 257.45 243.528 284.92C238.048 292.71 220.168 315.16 213.608 321C193.268 339.12 159.028 302.01 149.318 285.31C121.568 237.59 137.328 176.07 184.818 148.2C205.598 136 229.218 132.05 253.108 135.01V135.02Z" fill="white"/>
</svg>
